<svg xmlns="http://www.w3.org/2000/svg" xmlns:xlink="http://www.w3.org/1999/xlink" zoomAndPan="magnify" preserveAspectRatio="xMidYMid meet" version="1.0" viewBox="75.77 75.5 194.07 47.95"><defs><g></g><clipPath id="252a5fc56e"><path d="M 83 101 L 107 101 L 107 123.453125 L 83 123.453125 Z M 83 101 " clip-rule="nonzero"></path></clipPath><clipPath id="30c21abc91"><path d="M 104 83 L 123.726562 83 L 123.726562 104 L 104 104 Z M 104 83 " clip-rule="nonzero"></path></clipPath><clipPath id="879835d28e"><path d="M 94 75.503906 L 116 75.503906 L 116 98 L 94 98 Z M 94 75.503906 " clip-rule="nonzero"></path></clipPath><clipPath id="75172bcf21"><path d="M 75.777344 95 L 95 95 L 95 116 L 75.777344 116 Z M 75.777344 95 " clip-rule="nonzero"></path></clipPath></defs><g clip-path="url(#252a5fc56e)"><path fill="#ffffff" d="M 93.164062 101.746094 L 90.492188 105.792969 C 88.074219 109.488281 85.652344 113.160156 83.230469 116.8125 C 83.652344 117.132812 84.039062 117.453125 84.414062 117.765625 C 85.226562 118.40625 86.054688 119.085938 86.921875 119.660156 C 89.964844 121.640625 93.289062 122.828125 96.898438 123.230469 C 99.351562 123.527344 101.789062 123.445312 104.214844 122.988281 C 104.835938 122.875 105.445312 122.710938 106.066406 122.542969 L 106.246094 122.542969 L 93.40625 101.378906 Z M 93.164062 101.746094 " fill-opacity="1" fill-rule="nonzero"></path></g><path fill="#ffffff" d="M 92.320312 76.65625 C 89.636719 77.554688 87.183594 78.878906 84.957031 80.625 C 81.683594 83.175781 79.246094 86.367188 77.640625 90.191406 C 77.332031 90.957031 77.066406 91.734375 76.789062 92.554688 C 76.789062 92.699219 76.699219 92.84375 76.644531 92.988281 L 101.035156 92.988281 L 97.496094 86.335938 C 95.761719 83.148438 94.035156 79.921875 92.320312 76.65625 Z M 92.320312 76.65625 " fill-opacity="1" fill-rule="nonzero"></path><g clip-path="url(#30c21abc91)"><path fill="#ffffff" d="M 104.9375 103.484375 L 123.351562 103.484375 C 123.671875 101.660156 123.777344 99.824219 123.664062 97.972656 C 123.550781 96.125 123.226562 94.3125 122.6875 92.539062 C 122.148438 90.765625 121.410156 89.078125 120.472656 87.480469 C 119.535156 85.882812 118.425781 84.414062 117.140625 83.074219 Z M 104.9375 103.484375 " fill-opacity="1" fill-rule="nonzero"></path></g><path fill="#ffffff" d="M 118.695312 114.140625 C 120.621094 111.691406 122 108.964844 122.828125 105.957031 L 99.0625 105.957031 L 108.59375 121.710938 C 110.585938 120.921875 112.4375 119.886719 114.152344 118.601562 C 115.867188 117.316406 117.378906 115.832031 118.695312 114.140625 Z M 118.695312 114.140625 " fill-opacity="1" fill-rule="nonzero"></path><g clip-path="url(#879835d28e)"><path fill="#ffffff" d="M 105.957031 97.078125 L 115.347656 81.355469 C 113.949219 80.148438 112.433594 79.117188 110.796875 78.265625 C 109.160156 77.410156 107.445312 76.753906 105.65625 76.296875 C 103.867188 75.839844 102.050781 75.59375 100.203125 75.558594 C 98.355469 75.523438 96.53125 75.703125 94.726562 76.089844 Z M 105.957031 97.078125 " fill-opacity="1" fill-rule="nonzero"></path></g><g clip-path="url(#75172bcf21)"><path fill="#ffffff" d="M 76.121094 95.402344 C 76.121094 95.703125 76.046875 95.96875 76.011719 96.246094 C 75.933594 96.789062 75.855469 97.355469 75.824219 97.875 C 75.539062 102.066406 76.308594 106.054688 78.128906 109.839844 C 79.03125 111.714844 80.167969 113.433594 81.53125 115.003906 L 94.460938 95.414062 L 76.121094 95.414062 Z M 76.121094 95.402344 " fill-opacity="1" fill-rule="nonzero"></path></g><g fill="#ffffff" fill-opacity="1"><g transform="translate(131.419667, 107.63228)"><g><path d="M 4.601562 0 L 6.824219 0 L 11.042969 -17.894531 L 9.128906 -17.894531 L 6.46875 -5.777344 C 6.1875 -4.550781 5.980469 -3.222656 5.777344 -1.96875 L 5.675781 -1.96875 C 5.523438 -3.222656 5.316406 -4.550781 5.0625 -5.777344 L 2.351562 -17.894531 L 0.410156 -17.894531 Z M 4.601562 0 "></path></g></g></g><g fill="#ffffff" fill-opacity="1"><g transform="translate(144.483759, 107.63228)"><g><path d="M 1.816406 0 L 3.707031 0 L 3.707031 -17.894531 L 1.816406 -17.894531 Z M 1.816406 0 "></path></g></g></g><g fill="#ffffff" fill-opacity="1"><g transform="translate(151.591041, 107.63228)"><g><path d="M 11.09375 0 L 7.746094 -7.695312 C 9.816406 -8.359375 10.917969 -10.074219 10.917969 -12.808594 C 10.917969 -16.3125 9.203125 -17.894531 5.597656 -17.894531 L 1.816406 -17.894531 L 1.816406 0 L 3.707031 0 L 3.707031 -7.386719 L 5.855469 -7.386719 L 9.023438 0 Z M 5.472656 -8.972656 L 3.707031 -8.972656 L 3.707031 -16.285156 L 5.421875 -16.285156 C 7.875 -16.285156 8.972656 -15.160156 8.972656 -12.730469 C 8.972656 -10.148438 7.875 -8.972656 5.472656 -8.972656 Z M 5.472656 -8.972656 "></path></g></g></g><g fill="#ffffff" fill-opacity="1"><g transform="translate(165.268716, 107.63228)"><g><path d="M 9.792969 -17.894531 L 0.460938 -17.894531 L 0.460938 -16.285156 L 4.167969 -16.285156 L 4.167969 0 L 6.058594 0 L 6.058594 -16.285156 L 9.792969 -16.285156 Z M 9.792969 -17.894531 "></path></g></g></g><g fill="#ffffff" fill-opacity="1"><g transform="translate(177.131227, 107.63228)"><g><path d="M 6.238281 0.253906 C 9.410156 0.253906 10.8125 -1.585938 10.8125 -5.703125 L 10.8125 -17.894531 L 8.921875 -17.894531 L 8.921875 -5.804688 C 8.921875 -2.660156 8.15625 -1.40625 6.238281 -1.40625 C 4.347656 -1.40625 3.578125 -2.660156 3.578125 -5.804688 L 3.578125 -17.894531 L 1.6875 -17.894531 L 1.6875 -5.703125 C 1.6875 -1.585938 3.09375 0.253906 6.238281 0.253906 Z M 6.238281 0.253906 "></path></g></g></g><g fill="#ffffff" fill-opacity="1"><g transform="translate(191.217944, 107.63228)"><g><path d="M 9.230469 0 L 11.171875 0 L 7.003906 -17.894531 L 4.679688 -17.894531 L 0.433594 0 L 2.351562 0 L 3.453125 -5.164062 L 8.054688 -5.164062 Z M 5.0625 -12.273438 C 5.34375 -13.5 5.546875 -14.699219 5.726562 -15.925781 L 5.828125 -15.925781 C 6.007812 -14.699219 6.210938 -13.5 6.46875 -12.273438 L 7.722656 -6.75 L 3.835938 -6.75 Z M 5.0625 -12.273438 "></path></g></g></g><g fill="#ffffff" fill-opacity="1"><g transform="translate(204.435426, 107.63228)"><g><path d="M 1.816406 0 L 9.28125 0 L 9.28125 -1.609375 L 3.707031 -1.609375 L 3.707031 -17.894531 L 1.816406 -17.894531 Z M 1.816406 0 "></path></g></g></g><g fill="#ffffff" fill-opacity="1"><g transform="translate(215.735489, 107.63228)"><g><path d="M 1.816406 0 L 3.707031 0 L 3.707031 -8.179688 L 8.640625 -8.179688 L 8.640625 -9.792969 L 3.707031 -9.792969 L 3.707031 -16.285156 L 9.101562 -16.285156 L 9.101562 -17.894531 L 1.816406 -17.894531 Z M 1.816406 0 "></path></g></g></g><g fill="#ffffff" fill-opacity="1"><g transform="translate(227.009984, 107.63228)"><g><path d="M 6.085938 0.253906 C 9.636719 0.253906 10.941406 -2.199219 10.941406 -8.972656 C 10.941406 -15.699219 9.636719 -18.152344 6.136719 -18.152344 C 2.554688 -18.152344 1.253906 -15.699219 1.253906 -8.921875 C 1.253906 -2.148438 2.53125 0.253906 6.085938 0.253906 Z M 6.136719 -1.40625 C 3.886719 -1.40625 3.195312 -3.273438 3.195312 -8.972656 C 3.195312 -14.699219 3.859375 -16.488281 6.085938 -16.488281 C 8.308594 -16.488281 9 -14.625 9 -8.921875 C 9 -3.195312 8.335938 -1.40625 6.136719 -1.40625 Z M 6.136719 -1.40625 "></path></g></g></g><g fill="#ffffff" fill-opacity="1"><g transform="translate(240.815485, 107.63228)"><g><path d="M 11.09375 0 L 7.746094 -7.695312 C 9.816406 -8.359375 10.917969 -10.074219 10.917969 -12.808594 C 10.917969 -16.3125 9.203125 -17.894531 5.597656 -17.894531 L 1.816406 -17.894531 L 1.816406 0 L 3.707031 0 L 3.707031 -7.386719 L 5.855469 -7.386719 L 9.023438 0 Z M 5.472656 -8.972656 L 3.707031 -8.972656 L 3.707031 -16.285156 L 5.421875 -16.285156 C 7.875 -16.285156 8.972656 -15.160156 8.972656 -12.730469 C 8.972656 -10.148438 7.875 -8.972656 5.472656 -8.972656 Z M 5.472656 -8.972656 "></path></g></g></g><g fill="#ffffff" fill-opacity="1"><g transform="translate(254.493163, 107.63228)"><g><path d="M 0.921875 0 L 2.8125 0 L 3.859375 -11.25 C 3.988281 -12.707031 3.988281 -14.238281 3.988281 -15.671875 L 4.089844 -15.671875 C 4.269531 -14.265625 4.550781 -12.78125 4.804688 -11.402344 L 7.003906 0 L 9.253906 0 L 11.480469 -11.375 C 11.785156 -12.78125 12.015625 -14.238281 12.21875 -15.671875 L 12.324219 -15.671875 C 12.324219 -15.3125 12.324219 -14.929688 12.324219 -14.574219 C 12.347656 -13.449219 12.347656 -12.375 12.449219 -11.25 L 13.449219 0 L 15.339844 0 L 13.601562 -17.894531 L 11.121094 -17.894531 L 8.71875 -5.265625 C 8.511719 -4.140625 8.335938 -3.066406 8.179688 -1.96875 L 8.078125 -1.96875 C 7.976562 -3.066406 7.796875 -4.140625 7.566406 -5.265625 L 5.191406 -17.894531 L 2.710938 -17.894531 Z M 0.921875 0 "></path></g></g></g></svg>